<?xml version="1.0" encoding="utf-8"?>
<!-- Generator: Adobe Illustrator 26.5.0, SVG Export Plug-In . SVG Version: 6.00 Build 0)  -->
<svg version="1.1" id="Layer_1" xmlns="http://www.w3.org/2000/svg" xmlns:xlink="http://www.w3.org/1999/xlink" x="0px" y="0px"
	 viewBox="0 0 610 358" style="enable-background:new 0 0 610 358;" xml:space="preserve">
<style type="text/css">
	.st0{opacity:0.34;fill:#D1BFF8;enable-background:new    ;}
	.st1{fill:#2E3666;}
	.st2{fill:#66A1F6;}
	.st3{fill:#267AF2;}
	.st4{fill:#C3DAFD;}
	.st5{fill:#86B5F8;}
	.st6{fill:#4B91F5;}
	.st7{fill:#FFE08B;}
	.st8{fill:#FFD152;}
	.st9{fill:#FFC118;}
	.st10{fill:#629FF6;}
	.st11{fill:#96BFF9;}
	.st12{fill:#4B91F4;}
	.st13{fill:#F9AE00;}
	.st14{fill:#FFEFC5;}
	.st15{fill:#8495A3;}
	.st16{fill:#9FACB7;}
	.st17{fill:#F5F7F8;}
	.st18{fill:#D5DBE0;}
	.st19{fill:#CDD4DA;}
	.st20{fill:#C1CAD1;}
	.st21{fill:#E63817;}
	.st22{fill:#617A8D;}
	.st23{fill:#5B7386;}
	.st24{fill:#9EA9B3;}
	.st25{fill:#B1BDC7;}
	.st26{fill:#617788;}
	.st27{fill:#476175;}
	.st28{fill:#C9D1D7;}
	.st29{fill:#8194EC;}
	.st30{fill:#C1D1FF;}
	.st31{fill:#C5D4FF;}
	.st32{fill:#A4BBFF;}
	.st33{fill:#FFE6A0;}
	.st34{opacity:0.8;fill:#FFC118;enable-background:new    ;}
	.st35{opacity:0.68;fill:#F9AE00;enable-background:new    ;}
	.st36{fill:#FAB921;}
	.st37{fill:#FBCD4F;}
	.st38{fill:#FF182B;}
	.st39{fill:#E6E9EC;}
	.st40{fill:#B7BFC2;}
	.st41{fill:#859BAD;}
	.st42{opacity:0.64;fill:#D1BFF8;enable-background:new    ;}
	.st43{opacity:0.54;fill:#C3DAFD;enable-background:new    ;}
	.st44{opacity:0.44;fill:#267AF2;enable-background:new    ;}
</style>
<path class="st0" d="M351.8,164.4c0,0-163.6,94.5-171.1,101.2l99.8,67.9l176.3-107.6L351.8,164.4L351.8,164.4z"/>
<path class="st1" d="M289,99.4l62.4,33.3l-138.9,82l-61.9-34.2L289,99.4z"/>
<path class="st2" d="M351.4,130.5V190l-138.9,82v-59.4L351.4,130.5z"/>
<path class="st3" d="M150.5,178.3v59.4l61.9,34.2v-59.4L150.5,178.3z"/>
<path class="st4" d="M288,87.1l68,36.2l-147.5,86.8L141,172.9L288,87.1z"/>
<path class="st5" d="M356,123.4v6.5l-147.5,86.7v-6.4L356,123.4z"/>
<path class="st6" d="M141,172.9v6.4l67.4,37.2v-6.4L141,172.9z"/>
<path class="st5" d="M319.6,288l-0.8-1l128.7-99.2l0.8,1L319.6,288z"/>
<path class="st5" d="M318.6,266.1l-0.3-1.2L447,211.1l0.4,1.2L318.6,266.1z"/>
<path class="st2" d="M445.7,214l2.5,1.5l2.5-1.5l0.1-27.9l-5.1,4L445.7,214z"/>
<path class="st3" d="M445.6,190.3l2.3-1.2l0.4,26.5l-2.5-1.6L445.6,190.3z"/>
<path class="st4" d="M313.8,288.7l2.5,1.5l2.5-1.5l0.1-27.9l-5.2,4L313.8,288.7z"/>
<path class="st3" d="M313.7,265l2.3-1.2l0.4,26.5l-2.5-1.6L313.7,265z"/>
<path class="st4" d="M284.7,271.6l2.5,1.5l2.5-1.5l0.1-27.9l-5.1,4L284.7,271.6z"/>
<path class="st3" d="M284.6,247.9l2.3-1.2l0.4,26.5l-2.5-1.6L284.6,247.9z"/>
<path class="st4" d="M316.1,262.4l-31.6-18.3l134.8-80l31.6,18.3L316.1,262.4z"/>
<path class="st5" d="M450.9,187.6l-134.8,80v-5.2l134.8-80V187.6z"/>
<path class="st6" d="M316.1,267.6l-31.6-18.3v-5.2l31.6,18.3V267.6z"/>
<path class="st7" d="M401.6,153.7l-35.4,20.7l35.4,20.5l35.5-20.5L401.6,153.7z"/>
<path class="st7" d="M418.7,183.7l-17.1-10l-17.1,10l17.1,9.9L418.7,183.7z"/>
<path class="st8" d="M434.9,174.4L401.6,155v18.8l17.1,10L434.9,174.4z"/>
<path class="st9" d="M401.6,155l-33.2,19.4l16.1,9.3l17.1-10V155z"/>
<path class="st4" d="M392.1,163.9l10.1-1.7c0.7-0.1,1.3,0,1.9,0.3l7.3,4.2c1.2,0.7,0.8,2.5-0.4,3.1l-9.4,5.7
	c-2.4,1.5-5.4,1.5-7.8,0.1l-6.4-3.7c-0.6-0.3-0.8-1-0.5-1.6l3-5.2L392.1,163.9L392.1,163.9z"/>
<path class="st5" d="M402.1,164.8c0.7,0,1.3-0.3,1.3-0.8c0-0.4-0.6-0.8-1.3-0.8c-0.7,0-1.3,0.3-1.3,0.8
	C400.8,164.5,401.4,164.8,402.1,164.8z"/>
<path class="st5" d="M393.1,166.5c0.7,0,1.3-0.3,1.3-0.8c0-0.4-0.6-0.8-1.3-0.8c-0.7,0-1.3,0.3-1.3,0.8
	C391.8,166.1,392.4,166.5,393.1,166.5z"/>
<path class="st5" d="M390.3,171.7c0.7,0,1.3-0.3,1.3-0.8c0-0.4-0.6-0.8-1.3-0.8c-0.7,0-1.3,0.3-1.3,0.8
	C388.9,171.3,389.5,171.7,390.3,171.7z"/>
<path class="st5" d="M396.2,175.1c0.4,0,0.7-0.2,0.7-0.4c0-0.2-0.3-0.4-0.7-0.4c-0.4,0-0.7,0.2-0.7,0.4
	C395.5,175,395.8,175.1,396.2,175.1z"/>
<path class="st5" d="M408.7,167.8c0.4,0,0.7-0.2,0.7-0.4c0-0.2-0.3-0.4-0.7-0.4c-0.4,0-0.6,0.2-0.6,0.4
	C408,167.7,408.3,167.8,408.7,167.8z"/>
<path class="st5" d="M399.7,173.8c4,0,7.2-1.9,7.2-4.2c0-2.3-3.2-4.2-7.2-4.2c-4,0-7.2,1.9-7.2,4.2
	C392.5,171.9,395.7,173.8,399.7,173.8z"/>
<path class="st6" d="M401.3,165.6v8.1c3.2-0.4,5.6-2.1,5.6-4.1C407,167.6,404.6,166,401.3,165.6z"/>
<path class="st10" d="M402.2,163.3L402.2,163.3l0,1.5h0c0.7,0,1.3-0.3,1.3-0.8C403.5,163.7,402.9,163.3,402.2,163.3z"/>
<path class="st10" d="M393.1,164.9L393.1,164.9l0,1.5h0c0.7,0,1.3-0.3,1.3-0.8C394.4,165.3,393.8,164.9,393.1,164.9z"/>
<path class="st10" d="M390.2,170.1L390.2,170.1l0,1.5h0c0.7,0,1.3-0.3,1.3-0.8C391.6,170.5,391,170.1,390.2,170.1z"/>
<path class="st10" d="M396.1,174.4v0.7c0.3,0,0.7-0.2,0.7-0.4C396.8,174.6,396.5,174.4,396.1,174.4z"/>
<path class="st10" d="M408.7,167.1v0.7c0.3,0,0.6-0.2,0.6-0.4C409.3,167.2,409,167.1,408.7,167.1L408.7,167.1z"/>
<path class="st11" d="M397.1,188.2c-0.5,0-2.9-0.5-2.9-1l-0.1-11.3c0,0,0.5,0.3,1,0.4c0.3,0.1,0.8,0.3,2.1,0.4
	c1.8,0.1,2.5-0.3,2.5-0.3c0.5-0.1,0.3,0,0.9-0.3v11.2C400.6,187.8,397.8,188.2,397.1,188.2L397.1,188.2z"/>
<path class="st12" d="M387.3,172v11.4l6.8,3.9l0-11.4L387.3,172z"/>
<path class="st12" d="M386.7,171v11.6c0,0,0,0.2,0.1,0.3l0.5,0.5V172c0,0-0.3-0.2-0.4-0.4C386.9,171.5,386.7,171.1,386.7,171
	L386.7,171z"/>
<path class="st5" d="M400.6,176.1l10.1-6.1v11.4l-10.2,5.9L400.6,176.1z"/>
<path class="st5" d="M412.1,167.9v11.7c0,0.5-0.2,1-0.6,1.3l-0.7,0.5V170c0,0,0.5-0.3,0.7-0.5c0.2-0.2,0.4-0.5,0.5-0.7
	C412,168.5,412.1,168,412.1,167.9L412.1,167.9z"/>
<path class="st4" d="M408.2,173.6l10.1-1.7c0.7-0.1,1.3,0,1.9,0.3l7.3,4.2c1.2,0.7,0.8,2.5-0.4,3.1l-9.4,5.7
	c-2.4,1.5-5.4,1.5-7.8,0.1l-6.4-3.7c-0.6-0.3-0.8-1-0.5-1.6l3-5.2L408.2,173.6L408.2,173.6z"/>
<path class="st5" d="M418.3,174.6c0.7,0,1.3-0.3,1.3-0.8c0-0.4-0.6-0.8-1.3-0.8c-0.7,0-1.3,0.3-1.3,0.8
	C417,174.2,417.5,174.6,418.3,174.6z"/>
<path class="st5" d="M409.3,176.2c0.7,0,1.3-0.3,1.3-0.8c0-0.4-0.6-0.8-1.3-0.8c-0.7,0-1.3,0.3-1.3,0.8
	C408,175.9,408.6,176.2,409.3,176.2z"/>
<path class="st5" d="M406.4,181.4c0.7,0,1.3-0.3,1.3-0.8c0-0.4-0.6-0.8-1.3-0.8c-0.7,0-1.3,0.3-1.3,0.8
	C405.1,181.1,405.7,181.4,406.4,181.4z"/>
<path class="st5" d="M412.3,184.9c0.4,0,0.7-0.2,0.7-0.4c0-0.2-0.3-0.4-0.7-0.4c-0.4,0-0.7,0.2-0.7,0.4
	C411.6,184.7,411.9,184.9,412.3,184.9z"/>
<path class="st5" d="M424.8,177.6c0.4,0,0.7-0.2,0.7-0.4c0-0.2-0.3-0.4-0.7-0.4c-0.4,0-0.7,0.2-0.7,0.4
	C424.2,177.4,424.5,177.6,424.8,177.6z"/>
<path class="st5" d="M415.8,183.6c4,0,7.2-1.9,7.2-4.2c0-2.3-3.2-4.2-7.2-4.2c-4,0-7.2,1.9-7.2,4.2
	C408.6,181.7,411.8,183.6,415.8,183.6z"/>
<path class="st6" d="M417.5,175.3v8.1c3.2-0.4,5.6-2.1,5.6-4.1C423.1,177.4,420.7,175.7,417.5,175.3L417.5,175.3z"/>
<path class="st10" d="M418.3,173.1L418.3,173.1l0,1.5h0c0.7,0,1.3-0.3,1.3-0.8C419.6,173.4,419,173.1,418.3,173.1z"/>
<path class="st10" d="M409.3,174.7L409.3,174.7l0,1.5h0c0.7,0,1.3-0.3,1.3-0.8C410.6,175,410,174.7,409.3,174.7z"/>
<path class="st10" d="M406.4,179.9L406.4,179.9l0,1.5h0c0.7,0,1.3-0.3,1.3-0.8C407.7,180.2,407.1,179.9,406.4,179.9z"/>
<path class="st10" d="M412.3,184.1v0.7c0.3,0,0.7-0.2,0.7-0.4C412.9,184.3,412.6,184.1,412.3,184.1z"/>
<path class="st10" d="M424.8,176.8v0.7c0.3,0,0.7-0.2,0.7-0.4C425.5,177,425.2,176.8,424.8,176.8z"/>
<path class="st11" d="M413.2,197.9c-0.5,0-2.9-0.5-2.9-1l-0.1-11.3c0,0,0.5,0.3,1,0.4c0.3,0.1,0.8,0.3,2.1,0.4
	c1.8,0.1,2.5-0.3,2.5-0.3c0.5-0.1,0.3,0,0.9-0.3V197C416.8,197.5,413.9,197.9,413.2,197.9L413.2,197.9z"/>
<path class="st12" d="M403.5,181.7v11.4l6.8,4l0-11.4L403.5,181.7z"/>
<path class="st12" d="M402.9,180.8v11.6c0,0,0,0.2,0.1,0.3l0.5,0.5v-11.4c0,0-0.3-0.2-0.3-0.4C403,181.3,402.9,180.8,402.9,180.8
	L402.9,180.8z"/>
<path class="st10" d="M416.7,185.8l10.1-6.1v11.4l-10.2,5.9L416.7,185.8z"/>
<path class="st10" d="M428.2,177.7v11.7c0,0.5-0.2,1-0.6,1.3l-0.7,0.5v-11.4c0,0,0.5-0.3,0.7-0.5c0.2-0.2,0.4-0.5,0.5-0.7
	C428.2,178.3,428.2,177.7,428.2,177.7L428.2,177.7z"/>
<path class="st9" d="M437.1,174.4v15.2l-35.5,20.5l0-15.2L437.1,174.4z"/>
<path class="st13" d="M401.6,194.9l0,15.2l-35.5-20.5v-15.2L401.6,194.9z"/>
<path class="st14" d="M434.8,174.4l-33.2,19.2l-17.5-10.1l-0.8,0.7l18.3,10.6l34.1-19.7L434.8,174.4z"/>
<path class="st9" d="M377.2,211.4v15.2l-35.5,20.5v-15.2L377.2,211.4z"/>
<path class="st13" d="M341.7,231.9v15.2l-35.5-20.5v-15.2L341.7,231.9z"/>
<path class="st7" d="M341.7,190.7l-35.5,20.7l35.5,20.5l35.5-20.5L341.7,190.7z"/>
<path class="st7" d="M358.8,220.7l-17.1-10l-17.1,10l17.1,9.9L358.8,220.7z"/>
<path class="st8" d="M375,211.4L341.7,192v18.7l17.1,10L375,211.4z"/>
<path class="st9" d="M341.7,192l-33.3,19.4l16.1,9.3l17.1-10V192z"/>
<path class="st4" d="M334.3,203.3l10.1-1.7c0.7-0.1,1.3,0,1.9,0.3l7.3,4.2c1.2,0.7,0.8,2.5-0.4,3.1l-9.4,5.7
	c-2.4,1.5-5.4,1.5-7.8,0.1l-6.4-3.7c-0.6-0.3-0.8-1-0.5-1.6l3-5.2L334.3,203.3L334.3,203.3z"/>
<path class="st5" d="M344.3,204.2c0.7,0,1.3-0.3,1.3-0.8c0-0.4-0.6-0.8-1.3-0.8c-0.7,0-1.3,0.3-1.3,0.8
	C343,203.9,343.6,204.2,344.3,204.2z"/>
<path class="st5" d="M335.4,205.9c0.7,0,1.3-0.3,1.3-0.8c0-0.4-0.6-0.8-1.3-0.8c-0.7,0-1.3,0.3-1.3,0.8
	C334,205.5,334.6,205.9,335.4,205.9z"/>
<path class="st5" d="M332.5,211.1c0.7,0,1.3-0.3,1.3-0.8s-0.6-0.8-1.3-0.8c-0.7,0-1.3,0.3-1.3,0.8S331.7,211.1,332.5,211.1z"/>
<path class="st5" d="M338.4,214.5c0.4,0,0.6-0.2,0.6-0.4c0-0.2-0.3-0.4-0.6-0.4c-0.4,0-0.7,0.2-0.7,0.4
	C337.7,214.4,338,214.5,338.4,214.5z"/>
<path class="st5" d="M350.9,207.2c0.4,0,0.7-0.2,0.7-0.4c0-0.2-0.3-0.4-0.7-0.4c-0.4,0-0.6,0.2-0.6,0.4
	C350.2,207.1,350.5,207.2,350.9,207.2z"/>
<path class="st5" d="M341.9,213.2c4,0,7.2-1.9,7.2-4.2c0-2.3-3.2-4.2-7.2-4.2c-4,0-7.2,1.9-7.2,4.2
	C334.7,211.3,337.9,213.2,341.9,213.2z"/>
<path class="st6" d="M343.5,205v8.1c3.2-0.4,5.6-2.1,5.6-4.1C349.2,207,346.8,205.4,343.5,205L343.5,205z"/>
<path class="st10" d="M344.4,202.7L344.4,202.7l0,1.5h0c0.7,0,1.3-0.3,1.3-0.8C345.7,203.1,345.1,202.7,344.4,202.7z"/>
<path class="st10" d="M335.3,204.3L335.3,204.3l0,1.5h0c0.7,0,1.3-0.3,1.3-0.8C336.7,204.7,336.1,204.3,335.3,204.3z"/>
<path class="st10" d="M332.4,209.5L332.4,209.5l0,1.5h0c0.7,0,1.3-0.3,1.3-0.8S333.2,209.5,332.4,209.5z"/>
<path class="st10" d="M338.3,213.8v0.7c0.4,0,0.7-0.2,0.7-0.4C339,213.9,338.7,213.8,338.3,213.8z"/>
<path class="st10" d="M350.9,206.4v0.7c0.4,0,0.7-0.2,0.7-0.4C351.5,206.6,351.3,206.4,350.9,206.4z"/>
<path class="st11" d="M339.3,227.6c-0.5,0-2.9-0.5-2.9-1l-0.1-11.3c0,0,0.5,0.3,1,0.4c0.3,0.1,0.8,0.3,2.1,0.4
	c1.8,0.1,2.5-0.3,2.5-0.3c0.5-0.1,0.3,0,0.9-0.3v11.2C342.8,227.2,339.9,227.6,339.3,227.6L339.3,227.6z"/>
<path class="st6" d="M329.5,211.4v11.4l6.8,4l0-11.4L329.5,211.4z"/>
<path class="st12" d="M329,210.4V222c0,0,0,0.2,0.1,0.3l0.5,0.5v-11.4c0,0-0.3-0.2-0.4-0.4C329.1,210.9,329,210.4,329,210.4
	L329,210.4z"/>
<path class="st5" d="M342.8,215.5l10.1-6.1v11.4l-10.2,5.9L342.8,215.5z"/>
<path class="st5" d="M354.3,207.3V219c0,0.5-0.2,1-0.6,1.3l-0.7,0.5v-11.4c0,0,0.5-0.3,0.7-0.5c0.2-0.2,0.4-0.5,0.5-0.7
	C354.2,207.9,354.3,207.4,354.3,207.3L354.3,207.3z"/>
<path class="st15" d="M303.2,29.6c0-1.2,0.3-2.2,0.7-3h-1.1l2.5-1.3c0.9-0.4,2-0.3,3.1,0.4c2.5,1.4,4.6,5,5.1,8.4v0.2l7.9,60.1
	c0,0.3,0.1,0.5,0.1,0.8c0,2.2-0.8,3.7-2,4.2c0,0-1.6,0.9-1.6,0.9l-0.2-0.7c-0.5-0.1-1-0.2-1.5-0.5c-2.7-1.5-4.9-5.5-5.1-9.1
	l-7.8-58.5C303.2,30.7,303.2,30.2,303.2,29.6L303.2,29.6z"/>
<path class="st16" d="M299.8,30.9c0-3.8,2.3-5.6,5.2-3.9c2.5,1.4,4.6,5,5.1,8.4v0.2l7.9,60.1c0,0.3,0.1,0.5,0.1,0.8
	c0,3.8-2.3,5.6-5.2,3.9c-2.7-1.5-4.8-5.5-5.1-9.1L300,32.7C299.9,32.1,299.9,31.5,299.8,30.9L299.8,30.9z"/>
<path class="st17" d="M308.8,12.3c2-1.2,4.6-1.1,7.5,0.5c1.5,0.9,3,2.1,4.3,3.6l-23,13.1l-11.2-4.5L308.8,12.3L308.8,12.3z"/>
<path class="st18" d="M320.6,16.5l26.8,0.6l-15.8,9l-2.3,3.3l-1.1,0.9l-3.7-0.1l-26.9-0.6L320.6,16.5z"/>
<path class="st17" d="M347.4,17.1l7.1-4.1c1.9-1,4.4-0.8,7.1,0.7c6.3,3.6,11.3,13.3,11.3,21.6c0,4.6-1.5,7.8-3.9,9.1l-0.2,0.1
	l-22.7,13l-16.5-25l2-6.5L347.4,17.1L347.4,17.1z"/>
<path class="st19" d="M372.8,35.2c0,4.6-1.5,7.8-3.9,9.1l-0.2,0.1l-22.7,13l-8.6-13.1l33.5-18.7C372.1,28.8,372.8,32.1,372.8,35.2
	L372.8,35.2z"/>
<path class="st20" d="M293.3,26c1.5,0.9,3,2.1,4.3,3.6l30.6,0.7c1.7-4.6,5.7-6.2,10.5-3.4c6.3,3.6,11.3,13.3,11.3,21.6
	s-5.1,12.2-11.3,8.6c-1.5-0.9-2.9-2.1-4.2-3.5l-30.8-0.4c-1.8,4.2-5.7,5.6-10.3,3c-6.3-3.6-11.3-13.3-11.3-21.6
	C282,26.2,287.1,22.4,293.3,26L293.3,26z"/>
<path class="st21" d="M318.2,36.3l-14.4-0.4c-0.4,0-0.7-0.3-0.7-0.7c0-0.4,0.4-0.7,0.7-0.7l14.4,0.4c0.4,0,0.7,0.3,0.7,0.7
	C318.9,36,318.6,36.3,318.2,36.3z"/>
<path class="st21" d="M319.6,40.3L305.2,40c-0.4,0-0.7-0.3-0.7-0.7c0-0.4,0.4-0.6,0.7-0.7l14.4,0.4c0.4,0,0.7,0.3,0.7,0.7
	C320.3,40,320,40.3,319.6,40.3z"/>
<path class="st21" d="M321.2,44.4L306.8,44c-0.4,0-0.7-0.3-0.7-0.7c0-0.4,0.4-0.7,0.7-0.7l14.4,0.4c0.4,0,0.7,0.3,0.7,0.7
	S321.6,44.4,321.2,44.4z"/>
<path class="st21" d="M322.7,48.5l-14.4-0.4c-0.4,0-0.7-0.3-0.7-0.7c0-0.4,0.4-0.7,0.7-0.7l14.4,0.4c0.4,0,0.7,0.3,0.7,0.7
	C323.4,48.2,323.1,48.5,322.7,48.5z"/>
<path class="st22" d="M321.7,110.8c-6-2.9-13.9-4.7-22.4-4.7c-8.6,0-16.4,1.8-22.4,4.7H265v14.5c0,10.6,15.3,19.1,34.3,19.1
	c18.9,0,34.3-8.6,34.3-19.1v-14.5H321.7z"/>
<path class="st15" d="M299.3,129.9c18.9,0,34.3-8.6,34.3-19.1s-15.3-19.1-34.3-19.1c-18.9,0-34.3,8.6-34.3,19.1
	S280.3,129.9,299.3,129.9z"/>
<path class="st23" d="M318.2,93.9c-5.1-2.5-11.7-3.9-18.9-3.9c-7.2,0-13.8,1.5-18.9,3.9l-10,4.3v7.9c0,8.9,12.9,16.1,28.9,16.1
	c16,0,28.9-7.2,28.9-16.1v-7.9L318.2,93.9z"/>
<path class="st24" d="M270.4,98.2c0,8.9,12.9,16.1,28.9,16.1c16,0,28.9-7.2,28.9-16.1c0-8.9-12.9-16.1-28.9-16.1
	C283.3,82.1,270.4,89.3,270.4,98.2z"/>
<path class="st20" d="M291.7,70.1c1.3-0.8,3-0.7,4.9,0.3c0,0,18.9,10.9,19,11c4.1,2.3,7.4,8.7,7.4,14.1c0,3-1,5.1-2.6,6l-15,8.7
	l-28.6-31.4L291.7,70.1L291.7,70.1z"/>
<path class="st25" d="M322.5,95.9c0,3-1,5.1-2.6,6l-15,8.7L294.5,99l23.5-15C320.7,87.1,322.5,91.7,322.5,95.9L322.5,95.9z"/>
<path class="st15" d="M281.5,79.2c0,0,18.9,10.9,19,11c4.1,2.3,7.4,8.7,7.4,14.1s-3.1,7.7-7,5.7l-19.3-11.2
	c-4.1-2.3-7.4-8.7-7.4-14.1C274.2,79.3,277.5,76.8,281.5,79.2L281.5,79.2z"/>
<path class="st26" d="M287.4,38.5c0-1.2,0.3-2.2,0.7-3H287l2.5-1.3c0.9-0.4,2-0.3,3.1,0.4c2.5,1.4,4.6,5,5.1,8.4v0.2l7.9,60.1
	c0,0.3,0.1,0.5,0.1,0.8c0,2.2-0.8,3.7-2,4.2c0,0-1.6,0.9-1.6,0.9l-0.2-0.7c-0.5-0.1-1-0.2-1.5-0.5c-2.7-1.5-4.8-5.5-5.1-9.1
	l-7.8-58.5C287.5,39.7,287.4,39.1,287.4,38.5L287.4,38.5z"/>
<path class="st16" d="M283.9,39.8c0-3.8,2.3-5.6,5.2-3.9c2.5,1.4,4.6,5,5.1,8.4v0.2l7.9,60.1c0,0.3,0.1,0.5,0.1,0.8
	c0,3.8-2.3,5.6-5.2,3.9c-2.7-1.5-4.9-5.5-5.1-9.1l-7.8-58.5C284,41,283.9,40.4,283.9,39.8L283.9,39.8z"/>
<path class="st4" d="M303.1,105.5c0,4.5-2.7,6.6-6.1,4.6c-3.4-1.9-6.1-7.2-6.1-11.7c0-4.5,2.7-6.6,6.1-4.6
	C300.3,95.8,303.1,101,303.1,105.5z"/>
<path class="st27" d="M299.8,46.6c0-6.3-3.8-13.5-8.5-16.2c-2.1-1.2-4-1.3-5.4-0.5L282,32l11,23.6l4.1-2.2
	C298.8,52.3,299.9,49.9,299.8,46.6L299.8,46.6z"/>
<path class="st15" d="M296.2,48.6c0,6.3-3.8,9.1-8.5,6.4c-4.7-2.7-8.5-10-8.5-16.2c0-6.3,3.8-9.1,8.5-6.4
	C292.4,35.1,296.2,42.3,296.2,48.6L296.2,48.6z"/>
<path class="st27" d="M291.4,46.3c0-3.2-1.9-6.9-4.3-8.2c-1-0.6-2-0.7-2.8-0.3l-2,1.1l5.6,12l2.1-1.1
	C290.9,49.2,291.4,48,291.4,46.3L291.4,46.3z"/>
<path class="st28" d="M289.6,47.3c0,3.2-1.9,4.6-4.3,3.3c-2.4-1.4-4.3-5.1-4.3-8.2c0-3.2,1.9-4.6,4.3-3.3
	C287.6,40.4,289.6,44.1,289.6,47.3z"/>
<path class="st27" d="M344.9,48.1c0-6.3-3.8-13.5-8.5-16.2c-2.1-1.2-4-1.3-5.4-0.5l-3.9,2.2l11,23.6l4.1-2.2
	C343.9,53.9,344.9,51.5,344.9,48.1L344.9,48.1z"/>
<path class="st15" d="M341.3,50.1c0,6.3-3.8,9.1-8.5,6.4c-4.7-2.7-8.5-10-8.5-16.2c0-6.3,3.8-9.1,8.5-6.4
	C337.5,36.6,341.3,43.9,341.3,50.1z"/>
<path class="st27" d="M336.5,47.8c0-3.2-1.9-6.9-4.3-8.2c-1-0.6-2-0.7-2.8-0.3l-2,1.1l5.6,12l2.1-1.1
	C335.9,50.7,336.5,49.5,336.5,47.8L336.5,47.8z"/>
<path class="st28" d="M334.6,48.9c0,3.2-1.9,4.6-4.3,3.3c-2.4-1.4-4.3-5.1-4.3-8.2c0-3.2,1.9-4.6,4.3-3.3
	C332.7,42,334.6,45.7,334.6,48.9z"/>
<path class="st17" d="M355.1,41.7c0.3,2.2,1.2,3.7,2.4,4.2L394.2,61l6.7-15.9l-38.1-15.7c-1-0.4-2.3-0.2-3.5,0.8
	C356.5,32.5,354.6,37.6,355.1,41.7L355.1,41.7z"/>
<path class="st20" d="M398.5,51.1l-4.2,10l-36.7-15.1c-1.2-0.5-2.1-2-2.4-4.2c-0.3-2.4,0.2-5.2,1.3-7.5L398.5,51.1z"/>
<path class="st29" d="M399.1,59.3c-3,2.9-6,2.4-6.9-1c-0.9-3.5,0.8-8.6,3.7-11.5c3-2.9,6.1-2.4,6.9,1
	C403.7,51.3,402,56.4,399.1,59.3z"/>
<path class="st17" d="M407.1,78.3l2.9,22.4l1.6,1.8l-0.7-0.3l-2.8-2.3l-2.9-22.3L407.1,78.3z"/>
<path class="st30" d="M408.7,73.4l1.9,0.8l-3.5,4.1l-1.9-0.8L408.7,73.4z"/>
<path class="st31" d="M410.6,74.2l3.8-2.9l-1.9-0.9l-3.8,3L410.6,74.2z"/>
<path class="st4" d="M413.9,97.7l1.5,1.8l-3.8,3l-1.6-1.8L413.9,97.7z"/>
<path class="st32" d="M410.6,74.2l3.8-2.9l-3.5,4.1l-3.8,2.9L410.6,74.2z"/>
<path class="st16" d="M410.9,75.3l3,22.3l-3.9,3l-2.9-22.4L410.9,75.3z"/>
<path class="st33" d="M410.9,94.3l13.5-2.3c0.9-0.1,1.8,0,2.5,0.4l9.8,5.6c1.6,1,1.1,3.3-0.5,4.2l-12.6,7.7c-3.2,2-7.2,2-10.4,0.1
	l-8.6-4.9c-0.8-0.4-1-1.4-0.6-2.2l4-7L410.9,94.3L410.9,94.3z"/>
<path class="st8" d="M424.3,95.6c1,0,1.8-0.5,1.8-1c0-0.6-0.8-1-1.8-1c-1,0-1.8,0.5-1.8,1C422.5,95.1,423.3,95.6,424.3,95.6z"/>
<path class="st8" d="M412.3,97.8c1,0,1.8-0.5,1.8-1s-0.8-1-1.8-1c-1,0-1.8,0.5-1.8,1S411.3,97.8,412.3,97.8z"/>
<path class="st8" d="M408.4,104.8c1,0,1.8-0.5,1.8-1c0-0.6-0.8-1-1.8-1s-1.8,0.5-1.8,1C406.6,104.3,407.4,104.8,408.4,104.8z"/>
<path class="st8" d="M416.3,109.4c0.5,0,0.9-0.2,0.9-0.5c0-0.3-0.4-0.5-0.9-0.5c-0.5,0-0.9,0.2-0.9,0.5
	C415.4,109.2,415.8,109.4,416.3,109.4z"/>
<path class="st8" d="M433.1,99.6c0.5,0,0.9-0.2,0.9-0.5c0-0.3-0.4-0.5-0.9-0.5c-0.5,0-0.9,0.2-0.9,0.5
	C432.2,99.4,432.6,99.6,433.1,99.6z"/>
<path class="st34" d="M421.1,107.6c5.4,0,9.7-2.5,9.7-5.6s-4.3-5.6-9.7-5.6c-5.4,0-9.7,2.5-9.7,5.6S415.7,107.6,421.1,107.6z"/>
<path class="st35" d="M423.3,96.6v10.8c4.3-0.6,7.5-2.8,7.5-5.4C430.8,99.4,427.6,97.2,423.3,96.6L423.3,96.6z"/>
<path class="st36" d="M424.3,93.6C424.3,93.6,424.3,93.6,424.3,93.6l-0.1,2.1c0,0,0,0,0.1,0c1,0,1.8-0.5,1.8-1
	C426.1,94,425.3,93.6,424.3,93.6L424.3,93.6z"/>
<path class="st36" d="M412.3,95.8C412.3,95.8,412.2,95.8,412.3,95.8l-0.1,2.1c0,0,0,0,0.1,0c1,0,1.8-0.5,1.8-1
	C414,96.2,413.2,95.8,412.3,95.8L412.3,95.8z"/>
<path class="st36" d="M408.4,102.7C408.4,102.7,408.4,102.7,408.4,102.7l-0.1,2.1c0,0,0,0,0.1,0c1,0,1.8-0.5,1.8-1
	C410.2,103.2,409.4,102.7,408.4,102.7L408.4,102.7z"/>
<path class="st36" d="M416.3,108.4v1c0.5,0,0.9-0.2,0.9-0.5C417.2,108.6,416.8,108.4,416.3,108.4L416.3,108.4z"/>
<path class="st36" d="M433.1,98.6v1c0.5,0,0.9-0.2,0.9-0.5C434,98.8,433.6,98.6,433.1,98.6L433.1,98.6z"/>
<path class="st37" d="M417.6,126.8c-0.7,0-3.9-0.6-3.9-1.3l-0.1-15.1c0,0,0.7,0.4,1.4,0.6c0.4,0.1,1,0.4,2.8,0.5
	c2.4,0.1,3.3-0.4,3.3-0.4c0.7-0.2,0.4,0,1.2-0.4l0,15C422.2,126.3,418.4,126.8,417.6,126.8L417.6,126.8z"/>
<path class="st13" d="M404.5,105.2v15.2l9.1,5.3l0-15.3L404.5,105.2z"/>
<path class="st13" d="M403.7,103.9v15.5c0,0.1,0,0.3,0.1,0.4l0.6,0.6l0-15.2c0,0-0.4-0.3-0.5-0.5
	C403.9,104.5,403.7,103.9,403.7,103.9z"/>
<path class="st9" d="M422.3,110.7l13.6-8.1v15.2l-13.6,8L422.3,110.7z"/>
<path class="st9" d="M437.6,99.8l0,15.6c0,0.7-0.3,1.3-0.8,1.7l-1,0.7v-15.3c0,0,0.6-0.3,0.9-0.6c0.3-0.3,0.6-0.6,0.7-1
	C437.6,100.5,437.6,99.8,437.6,99.8L437.6,99.8z"/>
<path class="st31" d="M412.7,75.1l3.8-3l-2.1-0.9l-3.8,3.1L412.7,75.1z"/>
<path class="st30" d="M412.7,75.1l4,7.2l-2.1-0.9l-4-7.1L412.7,75.1z"/>
<path class="st17" d="M419.3,102.2l-2.8,2.2l-0.5-0.3l1.3-2.2l-2.7-20.5l2.1,0.9L419.3,102.2z"/>
<path class="st32" d="M412.7,75.1l3.8-3l4,7.2l-3.8,2.9L412.7,75.1z"/>
<path class="st16" d="M420.5,79.3l2.6,19.9l-3.9,3l-2.6-19.9L420.5,79.3z"/>
<path class="st17" d="M417.1,44.1l-18.8,36.5l-9.2-3.7c-2.2-0.7-4.1-2.6-4.4-5.3l-1.2-8.9c-0.6-4.6,1.3-9.1,4.9-11.9l12.7-9.7
	c2-1.6,4.5-1.7,6.5-0.8L417.1,44.1L417.1,44.1z"/>
<path class="st15" d="M413.8,68L412,54.2l-7.1,5.5l1.8,13.9l-2.8,2.1l0.5,3.6l12.7-9.5l-0.5-3.9L413.8,68z"/>
<path class="st38" d="M405.4,77.5c0.3,2.2,3.8,3.6,7.8,3.1c4-0.5,7-2.8,6.7-5c-0.3-2.2-3.8-3.6-7.8-3.1
	C408.2,73,405.1,75.2,405.4,77.5z"/>
<path class="st27" d="M418,66.1c-1.9-0.6-4.2-0.8-6.7-0.5c-2.5,0.3-4.7,1.1-6.4,2.2l-3.3,2l1.6,12.1c0.4,3.1,5.2,5,10.8,4.3
	c5.5-0.7,9.7-3.8,9.3-6.9l-1.6-12.1L418,66.1L418,66.1z"/>
<path class="st16" d="M421.7,67.2c0.4,3.1-3.8,6.2-9.3,6.9c-2.2,0.3-4.3,0.2-6-0.3c-0.2,0-0.4-0.1-0.5-0.1c-0.2-0.1-0.5-0.2-0.7-0.3
	c-0.3-0.1-0.6-0.2-0.9-0.4c-0.4-0.2-0.7-0.4-1-0.7c-0.2-0.2-0.4-0.3-0.5-0.5c-0.1-0.2-0.3-0.3-0.4-0.4c0,0,0-0.1-0.1-0.1
	c-0.1-0.2-0.2-0.3-0.3-0.5c-0.2-0.3-0.3-0.7-0.4-1.1c0-0.2,0-0.4,0-0.6c0-0.1,0-0.2,0-0.3c0-0.2,0.1-0.4,0.1-0.5
	c0.1-0.2,0.1-0.4,0.2-0.6c0-0.1,0.1-0.2,0.1-0.3c0.1-0.2,0.2-0.4,0.4-0.6c0.7-0.9,1.7-1.7,3-2.4c1.5-0.8,3.4-1.4,5.4-1.7
	C416.5,62.2,421.3,64.1,421.7,67.2L421.7,67.2z"/>
<path class="st38" d="M406.3,73.8c-0.2,0-0.4-0.1-0.5-0.1C406,73.7,406.2,73.7,406.3,73.8L406.3,73.8z"/>
<path class="st39" d="M418,65.1c-0.2-1.6-0.9-3.2-1.9-4.5c-0.3-0.4-0.6-0.7-1-1.1c-1.8-1.7-4.7-1.9-6.7-0.3c-1,0.8-2,1.6-2.6,2
	l8.2,10.2l4.4-3.4L418,65.1L418,65.1z"/>
<path class="st20" d="M413.7,68.5c-0.4-3.1-2.8-6.4-5.2-7.4c-2.5-1-4.2,0.6-3.8,3.7c0,0.1,0,0.1,0,0.2l0.3,2.1l0.1,0.6l4.3,1.8
	c0,0,0.2,0.1,0.3,0.1c0.1,0,0.1,0.1,0.2,0.1l4.3,1.7L413.7,68.5L413.7,68.5z"/>
<path class="st40" d="M405.1,64.5l-6.9,16.4l-9.2-3.7c-2.2-0.7-4-2.6-4.4-5.3l-1.2-8.9c-0.3-2.4,0.1-4.8,1-7l1.5,0.8L405.1,64.5
	L405.1,64.5z"/>
<path class="st20" d="M393.2,66.6l1.2,8.9c0.5,3.9,4.2,6.2,7.7,5.5l0.9-0.6l-0.4-3.1l4.2-3.3l-1.9-14.3l7.1-5.5l0.5,3.9
	c0.9,0.2,1.9,0.6,2.6,1.3c0.4,0.4,0.8,0.8,1,1.1c0.6,0.8,1.1,1.8,1.4,2.8c1.5,0.5,2.8,1.3,3.4,2.2c1.2-2.2,1.6-4.8,1.3-7.4l-1.2-8.9
	c-0.6-4.9-6.4-7.3-10.3-4.3l-12.7,9.7C394.5,57.5,392.6,62.1,393.2,66.6L393.2,66.6z"/>
<path class="st39" d="M414,58.7l-5.1-2.2l-4.1,3.2l0.3,2.2l0.3-0.4l0.9-0.6L414,58.7z"/>
<path class="st20" d="M408.2,61l-3.4-1.4L406,68L408.2,61z"/>
<path class="st27" d="M299.9,104.7c0-3-1.8-6.4-4-7.7c-1-0.6-1.9-0.6-2.6-0.3l-1.8,1l5.2,11.2l1.9-1
	C299.3,107.4,299.9,106.3,299.9,104.7z"/>
<path class="st28" d="M298.1,105.6c0,3-1.8,4.3-4,3c-2.2-1.3-4-4.7-4-7.7c0-3,1.8-4.3,4-3C296.3,99.2,298.1,102.6,298.1,105.6z"/>
<path class="st15" d="M220.5,65.1c0-1.3,0.3-2.4,0.7-3.2H220l2.7-1.4c0.9-0.4,2.1-0.3,3.4,0.4c2.7,1.5,5,5.4,5.5,9.1v0.2l8.6,65.1
	c0,0.3,0.1,0.6,0.1,0.9c0,2.4-0.8,4-2.1,4.6c0,0-1.7,1-1.7,1l-0.2-0.8c-0.5-0.1-1.1-0.2-1.6-0.6c-2.9-1.7-5.3-5.9-5.6-9.9l-8.4-63.5
	C220.6,66.4,220.5,65.8,220.5,65.1L220.5,65.1z"/>
<path class="st16" d="M216.9,66.5c0-4.2,2.5-6.1,5.6-4.3c2.7,1.5,5,5.4,5.5,9.1v0.2l8.6,65.1c0,0.3,0.1,0.6,0.1,0.9
	c0,4.2-2.5,6.1-5.6,4.3c-2.9-1.7-5.3-5.9-5.6-9.9l-8.4-63.5C216.9,67.8,216.9,67.2,216.9,66.5L216.9,66.5z"/>
<path class="st17" d="M226.6,46.4c2.2-1.3,5-1.2,8.1,0.6c1.7,1,3.2,2.3,4.7,3.9l-24.9,14.2l-12.1-4.9L226.6,46.4L226.6,46.4z"/>
<path class="st18" d="M239.3,50.9l29.1,0.7l-17.1,9.7l-2.5,3.5l-1.2,1l-4-0.1l-29.1-0.7L239.3,50.9z"/>
<path class="st39" d="M268.4,51.6l7.7-4.4c2.1-1.1,4.8-0.9,7.7,0.8c6.8,3.9,12.3,14.4,12.3,23.5c0,5-1.7,8.4-4.3,9.9l-0.2,0.1
	l-24.6,14.1l-17.9-27.1l2.2-7.1L268.4,51.6L268.4,51.6z"/>
<path class="st19" d="M295.9,71.2c0,5-1.7,8.4-4.3,9.9l-0.2,0.1l-24.6,14.1l-9.4-14.2l36.3-20.3C295.2,64.2,295.9,67.8,295.9,71.2
	L295.9,71.2z"/>
<path class="st20" d="M209.8,61.2c1.7,1,3.2,2.3,4.7,3.9l33.1,0.8c1.8-5,6.2-6.7,11.4-3.7c6.8,3.9,12.3,14.4,12.3,23.5
	S265.8,98.9,259,95c-1.6-0.9-3.2-2.2-4.6-3.8L221,90.8c-1.9,4.6-6.2,6.1-11.2,3.2c-6.8-3.9-12.3-14.4-12.3-23.5S203,57.3,209.8,61.2
	L209.8,61.2z"/>
<path class="st21" d="M236.8,72.4L221.1,72c-0.4,0-0.7-0.4-0.7-0.7c0-0.4,0.4-0.7,0.7-0.7l15.7,0.4c0.4,0,0.7,0.4,0.7,0.7
	C237.5,72.1,237.2,72.4,236.8,72.4z"/>
<path class="st21" d="M238.3,76.8l-15.7-0.4c-0.4,0-0.7-0.4-0.7-0.7c0-0.4,0.4-0.7,0.7-0.7l15.7,0.4c0.4,0,0.7,0.4,0.7,0.7
	C239.1,76.5,238.8,76.8,238.3,76.8z"/>
<path class="st21" d="M240.1,81.2l-15.7-0.4c-0.4,0-0.7-0.4-0.7-0.7c0-0.4,0.4-0.7,0.7-0.7l15.7,0.4c0.4,0,0.7,0.4,0.7,0.7
	C240.8,80.9,240.5,81.2,240.1,81.2L240.1,81.2z"/>
<path class="st21" d="M241.7,85.6L226,85.2c-0.4,0-0.7-0.4-0.7-0.7c0-0.4,0.4-0.7,0.7-0.7l15.7,0.4c0.4,0,0.7,0.4,0.7,0.7
	S242.1,85.6,241.7,85.6z"/>
<path class="st22" d="M240.6,153.2c-6.5-3.2-15-5.1-24.3-5.1c-9.3,0-17.8,1.9-24.3,5.1h-12.8v15.7c0,11.5,16.6,20.8,37.2,20.8
	s37.2-9.3,37.2-20.8v-15.7H240.6z"/>
<path class="st15" d="M216.3,173.9c20.5,0,37.2-9.3,37.2-20.8s-16.6-20.8-37.2-20.8c-20.5,0-37.2,9.3-37.2,20.8
	S195.7,173.9,216.3,173.9z"/>
<path class="st23" d="M236.7,134.9c-5.5-2.7-12.6-4.3-20.5-4.3c-7.8,0-15,1.6-20.5,4.3l-10.8,4.7v8.5c0,9.7,14,17.5,31.3,17.5
	s31.3-7.8,31.3-17.5v-8.5L236.7,134.9z"/>
<path class="st24" d="M185,139.5c0,9.7,14,17.5,31.3,17.5s31.3-7.8,31.3-17.5c0-9.7-14-17.5-31.3-17.5S185,129.9,185,139.5z"/>
<path class="st20" d="M208.1,109c1.4-0.9,3.3-0.8,5.3,0.4c0,0,20.5,11.8,20.6,11.9c4.4,2.5,8,9.4,8,15.2c0,3.3-1.1,5.5-2.8,6.5
	l-16.3,9.4l-31-34L208.1,109L208.1,109z"/>
<path class="st25" d="M241.5,137c0,3.3-1.1,5.6-2.8,6.5l-16.3,9.4l-11.3-12.4l25.5-16.2C239.4,127.5,241.5,132.5,241.5,137
	L241.5,137z"/>
<path class="st41" d="M197,118.9c0,0,20.5,11.8,20.6,11.9c4.4,2.5,8,9.4,8,15.2c0,5.9-3.3,8.4-7.6,6.2L197,140.2
	c-4.4-2.5-8-9.4-8-15.2C189,119,192.6,116.3,197,118.9z"/>
<path class="st26" d="M203.4,74.8c0-1.3,0.3-2.4,0.7-3.2h-1.2l2.7-1.4c0.9-0.4,2.1-0.3,3.4,0.4c2.7,1.5,5,5.4,5.5,9.1v0.2l8.6,65.1
	c0,0.3,0.1,0.6,0.1,0.9c0,2.4-0.8,4-2.1,4.6c0,0-1.7,1-1.7,1l-0.2-0.8c-0.5-0.1-1.1-0.2-1.6-0.6c-2.9-1.7-5.3-5.9-5.6-9.9l-8.4-63.5
	C203.5,76.1,203.4,75.5,203.4,74.8L203.4,74.8z"/>
<path class="st16" d="M199.6,76.3c0-4.2,2.5-6.1,5.6-4.3c2.7,1.5,5,5.4,5.5,9.1v0.2l8.6,65.1c0,0.3,0.1,0.6,0.1,0.9
	c0,4.2-2.5,6.1-5.6,4.3c-2.9-1.7-5.3-5.9-5.6-9.9l-8.4-63.5C199.7,77.5,199.6,76.9,199.6,76.3L199.6,76.3z"/>
<path class="st15" d="M220.4,147.5c0,4.9-3,7.1-6.6,5c-3.7-2.1-6.6-7.8-6.6-12.6c0-4.9,3-7.1,6.6-5S220.4,142.6,220.4,147.5z"/>
<path class="st27" d="M216.9,83.6c0-6.8-4.1-14.6-9.2-17.6c-2.2-1.3-4.3-1.4-5.9-0.6l-4.2,2.4l11.9,25.6l4.4-2.4
	C215.7,89.8,216.9,87.2,216.9,83.6L216.9,83.6z"/>
<path class="st15" d="M212.9,85.7c0,6.8-4.1,9.9-9.2,6.9c-5.1-2.9-9.2-10.8-9.2-17.6c0-6.8,4.1-9.9,9.2-6.9
	C208.8,71.1,212.9,78.9,212.9,85.7z"/>
<path class="st27" d="M207.7,83.3c0-3.4-2.1-7.4-4.7-8.9c-1.1-0.7-2.2-0.7-3-0.3l-2.1,1.2l6,13l2.2-1.2
	C207.2,86.4,207.8,85.1,207.7,83.3L207.7,83.3z"/>
<path class="st28" d="M205.7,84.4c0,3.4-2.1,5-4.7,3.5c-2.6-1.5-4.7-5.5-4.7-8.9c0-3.5,2.1-5,4.7-3.5
	C203.6,76.9,205.7,80.9,205.7,84.4z"/>
<path class="st27" d="M265.7,85.2c0-6.8-4.1-14.6-9.2-17.6c-2.2-1.3-4.3-1.4-5.9-0.6l-4.2,2.4L258.3,95l4.4-2.4
	C264.6,91.4,265.8,88.9,265.7,85.2L265.7,85.2z"/>
<path class="st15" d="M261.8,87.4c0,6.8-4.1,9.9-9.2,6.9c-5.1-2.9-9.2-10.8-9.2-17.6c0-6.8,4.1-9.9,9.2-6.9
	C257.7,72.7,261.8,80.6,261.8,87.4z"/>
<path class="st27" d="M256.6,84.9c0-3.4-2.1-7.4-4.7-8.9c-1.1-0.7-2.2-0.7-3-0.3l-2.1,1.2l6,13l2.2-1.2
	C256,88.1,256.6,86.7,256.6,84.9L256.6,84.9z"/>
<path class="st28" d="M254.6,86c0,3.4-2.1,5-4.7,3.5c-2.6-1.5-4.7-5.5-4.7-8.9c0-3.5,2.1-5,4.7-3.5C252.5,78.6,254.6,82.6,254.6,86z
	"/>
<path class="st17" d="M280.4,83.9c-0.4,2.6,0.1,4.6,1.4,5.7l37.1,29.9l13.1-16l-38.5-31.1c-1.1-0.8-2.6-0.9-4.3-0.3
	C285.1,73.8,281.2,79,280.4,83.9L280.4,83.9z"/>
<path class="st20" d="M327.1,109.5l-8.2,10l-37.1-30c-1.2-1.1-1.8-3-1.4-5.7c0.5-2.9,2-5.9,4-8.2L327.1,109.5L327.1,109.5z"/>
<path class="st29" d="M325,119.3c-4.4,2.3-7.8,0.7-7.7-3.6c0.2-4.3,3.8-9.7,8.2-12c4.4-2.3,7.8-0.7,7.7,3.6
	C333.1,111.6,329.4,116.9,325,119.3z"/>
<path class="st39" d="M327.8,143.8l-4.3,26.8l1.2,2.6l-0.7-0.6l-2.4-3.6l4.2-26.7L327.8,143.8z"/>
<path class="st30" d="M331.3,138.8l1.9,1.5l-5.4,3.5l-1.9-1.5L331.3,138.8z"/>
<path class="st31" d="M333.2,140.3l5.4-2.1l-1.9-1.7l-5.3,2.2L333.2,140.3z"/>
<path class="st40" d="M328.9,168.5l1.1,2.6l-5.4,2.1l-1.2-2.6L328.9,168.5z"/>
<path class="st32" d="M333.2,140.3l5.4-2.1l-5.4,3.5l-5.4,2.1L333.2,140.3z"/>
<path class="st16" d="M333.2,141.7l-4.2,26.7l-5.5,2.1l4.3-26.8L333.2,141.7z"/>
<path class="st31" d="M335.3,142l5.4-2.1l-2.1-1.8l-5.4,2.2L335.3,142z"/>
<path class="st30" d="M335.3,142l2.2,9.7l-2.1-1.7l-2.2-9.6L335.3,142z"/>
<path class="st39" d="M333.7,175.5l-4,1.5l-0.5-0.4l2.2-2.1l3.9-24.5l2.1,1.7L333.7,175.5z"/>
<path class="st32" d="M335.3,142l5.4-2.1l2.2,9.7l-5.4,2.1L335.3,142z"/>
<path class="st16" d="M342.9,149.6l-3.8,23.8l-5.5,2.1l3.8-23.8L342.9,149.6z"/>
<path class="st17" d="M351,107.9l-34.1,35.6l-9.4-7.4c-2.3-1.6-3.8-4.4-3.3-7.6l1.7-10.6c0.9-5.5,4.6-10.1,9.7-12l17.9-6.8
	c2.8-1.1,5.7-0.4,7.7,1.3L351,107.9L351,107.9z"/>
<path class="st15" d="M339,134.3l2.6-16.5l-10,3.9l-2.7,16.5l-4,1.5l-0.7,4.3l17.9-6.6l0.7-4.7L339,134.3z"/>
<path class="st38" d="M326.1,142.3c-0.4,2.7,3.1,5.5,7.9,6.2c4.8,0.7,9.1-0.8,9.5-3.5c0.4-2.7-3.1-5.5-7.9-6.2
	C330.8,138.1,326.5,139.6,326.1,142.3z"/>
<path class="st27" d="M344.5,133.6c-1.9-1.4-4.6-2.4-7.6-2.9c-3-0.5-5.8-0.3-8.1,0.4l-4.4,1.1l-2.3,14.5c-0.6,3.7,4.3,7.6,10.9,8.6
	c6.6,1.1,12.5-1.1,13.1-4.8l2.3-14.5L344.5,133.6L344.5,133.6z"/>
<path class="st16" d="M348.3,136c-0.6,3.7-6.4,5.8-13.1,4.8c-2.6-0.4-5-1.3-6.8-2.4c-0.2-0.1-0.4-0.2-0.6-0.3
	c-0.2-0.2-0.5-0.3-0.7-0.5c-0.3-0.2-0.6-0.5-0.9-0.7c-0.4-0.4-0.7-0.7-1-1.1c-0.2-0.2-0.3-0.5-0.4-0.7c-0.1-0.2-0.2-0.4-0.3-0.6
	c0,0,0-0.1,0-0.1c-0.1-0.2-0.1-0.4-0.2-0.6c-0.1-0.4-0.1-0.9-0.1-1.4c0-0.2,0.1-0.5,0.2-0.7c0-0.1,0.1-0.2,0.1-0.4
	c0.1-0.2,0.2-0.4,0.3-0.5c0.1-0.2,0.3-0.4,0.5-0.6c0.1-0.1,0.1-0.2,0.2-0.2c0.2-0.2,0.4-0.4,0.6-0.5c1.1-0.8,2.6-1.4,4.3-1.8
	c2-0.4,4.3-0.4,6.8-0.1C344,128.4,348.9,132.3,348.3,136L348.3,136z"/>
<path class="st38" d="M328.4,138.4L328.4,138.4c-0.2-0.1-0.4-0.2-0.6-0.3C328.1,138.2,328.2,138.3,328.4,138.4z"/>
<path class="st39" d="M344.9,132.4c0.3-2,0-4-0.6-5.9c-0.2-0.5-0.4-1.1-0.8-1.7c-1.5-2.6-4.8-3.7-7.6-2.6c-1.4,0.6-2.8,1.1-3.7,1.4
	l6,14.5l6.2-2.4L344.9,132.4L344.9,132.4z"/>
<path class="st20" d="M338.7,134.8c0.6-3.7-1-8.3-3.5-10.3c-2.5-2-5-0.7-5.6,3c0,0.1,0,0.1,0,0.2l-0.4,2.5l-0.1,0.7l4.3,3.5
	c0,0,0.2,0.1,0.2,0.2c0.1,0.1,0.1,0.1,0.2,0.1l4.3,3.5L338.7,134.8L338.7,134.8z"/>
<path class="st40" d="M330.2,127.2l-13.6,16.5l-9.4-7.4c-2.3-1.6-3.8-4.4-3.2-7.6l1.7-10.6c0.5-2.9,1.7-5.5,3.6-7.7l1.5,1.4
	L330.2,127.2L330.2,127.2z"/>
<path class="st20" d="M315.7,125.7l-1.7,10.6c-0.7,4.6,2.7,8.6,6.9,8.9l1.3-0.4l0.6-3.8l5.9-2.4l2.7-17.1l10-3.9l-0.7,4.7
	c1,0.5,2,1.3,2.5,2.4c0.3,0.6,0.6,1.2,0.8,1.7c0.4,1.2,0.7,2.4,0.7,3.7c1.6,1.1,2.7,2.4,3.2,3.7c2.1-2.2,3.5-5,4-8.1l1.7-10.6
	c0.9-5.9-4.8-10.6-10.4-8.5l-17.9,6.9C320.3,115.6,316.6,120.2,315.7,125.7L315.7,125.7z"/>
<path class="st39" d="M342.4,123.6l-5.1-4.2l-5.8,2.2l-0.4,2.6l0.4-0.3l1.2-0.4L342.4,123.6z"/>
<path class="st20" d="M334.9,124.4l-3.4-2.7l-1.6,9.9L334.9,124.4z"/>
<path class="st27" d="M216.9,146.6c0-3.2-2-6.9-4.4-8.4c-1.1-0.6-2-0.7-2.8-0.3l-2,1.1l5.6,12.1l2.1-1.1
	C216.3,149.5,216.9,148.3,216.9,146.6z"/>
<path class="st28" d="M215,147.6c0,3.2-2,4.7-4.4,3.3c-2.4-1.4-4.4-5.1-4.4-8.4s2-4.7,4.4-3.3C213,140.6,215,144.4,215,147.6z"/>
<path class="st42" d="M257.4,346.8l-29.7-17.9l18.9-11.3l29.7,17.8L257.4,346.8z"/>
<path class="st42" d="M284.1,332.2l-29.7-17.9l18.9-11.3l29.7,17.8L284.1,332.2z"/>
<path class="st43" d="M269.7,334.6l-29.7-17.4l18.9-11l29.7,17.4L269.7,334.6z"/>
<path class="st4" d="M283.7,303.6l-21.6-12.4l21.6-12.5l21.6,12.5L283.7,303.6z"/>
<path class="st5" d="M305.3,316l-21.6,12.5v-24.9l21.6-12.5V316z"/>
<path class="st3" d="M283.7,328.4L262.2,316v-24.9l21.6,12.5V328.4z"/>
<path class="st44" d="M275.2,284.1l21.5,12.4l0,6.5l-4,3l0-7.1l-21-12.8L275.2,284.1z"/>
<path class="st4" d="M256.9,318.2l-21.6-12.5l21.6-12.4l21.6,12.4L256.9,318.2z"/>
<path class="st5" d="M278.4,330.6L256.9,343v-24.9l21.6-12.5V330.6z"/>
<path class="st3" d="M256.9,343l-21.6-12.4v-24.9l21.6,12.5V343z"/>
<path class="st44" d="M247.4,298.6L269,311l0,6.5l-4,3l0-7.1l-21-12.8L247.4,298.6z"/>
<path class="st4" d="M267,285.9l-21.6-12.5L267,261l21.6,12.5L267,285.9z"/>
<path class="st5" d="M288.6,298.3L267,310.7v-24.9l21.6-12.5V298.3z"/>
<path class="st3" d="M267,310.7l-21.6-12.5v-24.9l21.6,12.5V310.7z"/>
<path class="st44" d="M259.8,265.1l21.5,12.4l0,6.5l-4,3l0-7.2l-21-12.8L259.8,265.1z"/>
</svg>
